<svg id="Layer_1" data-name="Layer 1" xmlns="http://www.w3.org/2000/svg" viewBox="0 0 66.69 57.18">
  <path d="M66.92,40.69a4.28,4.28,0,0,1-2.21-2.39c-.67-1.75-.3-4,1.1-6.8l.46-.93L61.71,28h0l-1.58-.87-.07,0h0l0,0c-.12-.06-2.8-1.61-.09-7l.46-.93L38,6.41l-27.52,16V30.1L2.31,34.81V47.34l6,3.38v5l5-.1,6,6.84V57L31,63.59,67.08,42.65,69,41.52ZM59.56,29.27l3.37,1.91L31,49.81,5.59,35.43l5.1-3L32.88,45Zm-26.68,7,23.93-14a6.27,6.27,0,0,0,.94,5.47L32.86,42.51,12.62,31.06V24.85ZM38,8.92,57,19.7,32.86,33.81,13.72,23ZM17.13,56.64l-2.86-3.26-3.83.08V45.65l6.69,3.87ZM31,61.08l-11.7-6.62V48.27l-11-6.39v6.33L4.48,46.07V37.31L31,52.32l31.53-18.4a8.48,8.48,0,0,0,.13,5.21,6.59,6.59,0,0,0,1.77,2.52Z" transform="translate(-2.31 -6.41)" fill="#5abcc4"/>
</svg>
