<svg id="Layer_1" data-name="Layer 1" xmlns="http://www.w3.org/2000/svg" viewBox="0 0 545.61 157.07"><path d="M224.21,91H202.13l-4.26,12.77H184.31l22.34-59.14h15.7l20.92,59.14H228.55Zm-3.55-10.55-7.54-22.35-7.44,22.35Z" transform="translate(-1.45 -0.94)" fill="#6f767c"/><path d="M289.29,63q5.94,5.63,5.94,18.75,0,10.56-5.32,16.94t-14.54,6.38a23.94,23.94,0,0,1-11.26-2.39v17.11h-13V68.4q0-5.4,6-8.16t15.38-2.83q10.83,0,16.76,5.63m-9.84,28.42q2.57-3,2.57-10.11c0-4.26-.75-7.46-2.26-9.62s-4.09-3.24-7.76-3.24q-7.89,0-7.89,3v21.1A11.84,11.84,0,0,0,267.66,94a17.48,17.48,0,0,0,3.81.44q5.41,0,8-3" transform="translate(-1.45 -0.94)" fill="#6f767c"/><path d="M341.7,63q5.94,5.63,5.94,18.75,0,10.56-5.32,16.94t-14.54,6.38a23.94,23.94,0,0,1-11.26-2.39v17.11H303.57V68.4q0-5.4,6-8.16t15.39-2.83q10.81,0,16.76,5.63m-9.84,28.42q2.56-3,2.57-10.11c0-4.26-.76-7.46-2.26-9.62s-4.1-3.24-7.76-3.24q-7.89,0-7.89,3v21.1A11.78,11.78,0,0,0,320.06,94a17.57,17.57,0,0,0,3.82.44q5.4,0,8-3" transform="translate(-1.45 -0.94)" fill="#6f767c"/><path d="M363.6,104.27a58.44,58.44,0,0,1-7.09-2.44V90.22a24.71,24.71,0,0,0,15.07,5.4,7.46,7.46,0,0,0,4.39-1,3.27,3.27,0,0,0,1.38-2.79,3.19,3.19,0,0,0-2.22-3A43.92,43.92,0,0,0,368,86.67a16.81,16.81,0,0,1-8.47-4.26q-3.33-3.19-3.33-9.31a13.5,13.5,0,0,1,2.66-8.6,15.39,15.39,0,0,1,6.69-4.92A23.11,23.11,0,0,1,374,58a32.93,32.93,0,0,1,8.64.93,25.83,25.83,0,0,1,6.52,2.88V72.21c-3-1.65-5.35-2.83-7-3.54a14.47,14.47,0,0,0-5.76-1.07,9.24,9.24,0,0,0-4.88,1,3.24,3.24,0,0,0-1.59,2.89,3.46,3.46,0,0,0,1.77,3.23,25.58,25.58,0,0,0,5.68,2.09,51,51,0,0,1,7,2.26A11.63,11.63,0,0,1,389,82.9q2,2.7,2,7.58-.18,7.62-5.76,11.13t-14.19,3.5a29.46,29.46,0,0,1-7.45-.84" transform="translate(-1.45 -0.94)" fill="#6f767c"/><path d="M401.38,42.6H415V52.79H401.38Zm.26,16.93h13.21l.09,44.25h-13.3Z" transform="translate(-1.45 -0.94)" fill="#6f767c"/><rect x="426.17" y="41.03" width="13.12" height="61.81" fill="#6f767c"/><path d="M456.53,99.08q-5.67-6-5.68-17.91,0-12.42,5.64-18.09t17.06-5.67q11.44,0,17.21,5.8t5.76,18q0,11.7-5.94,17.82t-17,6.12q-11.34,0-17-6m24.38-7.93q2.49-3.42,2.49-10,0-7.19-2.44-10.24c-1.63-2-4.09-3.06-7.41-3.06s-5.89,1-7.4,3.06-2.26,5.45-2.26,10.24q0,6.83,2.35,10.11t7.31,3.28a8.52,8.52,0,0,0,7.36-3.41" transform="translate(-1.45 -0.94)" fill="#6f767c"/><path d="M515.32,59.27A58.07,58.07,0,0,1,528,57.67q9.48,0,14.27,3.73t4.79,12.23v30.15H533.85V76.29q0-7.71-8.69-7.71a19.12,19.12,0,0,0-4,.44A12.41,12.41,0,0,0,518,70.09v33.69H504.77V62.73a43,43,0,0,1,10.55-3.46" transform="translate(-1.45 -0.94)" fill="#6f767c"/><path d="M10.91,8.36V150.84L134.3,79.6Zm38.5,71.23L15.46,138.41V20.78Zm2.63,0h0Zm1.31,2.27h67.92L19.39,140.69Zm0-4.54L19.4,18.51,121.27,77.33Z" transform="translate(-1.45 -0.94)" fill="#b3b8bb"/><path d="M7.53,2.52A11.81,11.81,0,1,0,23.67,6.85,11.83,11.83,0,0,0,7.53,2.52" transform="translate(-1.45 -0.94)" fill="#4791ce"/><path d="M46.12,69.36a11.81,11.81,0,1,0,16.14,4.33,11.82,11.82,0,0,0-16.14-4.33" transform="translate(-1.45 -0.94)" fill="#4791ce"/><path d="M7.35,136a11.81,11.81,0,1,0,16.14,4.33A11.82,11.82,0,0,0,7.35,136" transform="translate(-1.45 -0.94)" fill="#4791ce"/><path d="M123.2,69.09a11.81,11.81,0,1,0,16.13,4.33,11.82,11.82,0,0,0-16.13-4.33" transform="translate(-1.45 -0.94)" fill="#4791ce"/></svg>