<svg xmlns="http://www.w3.org/2000/svg" role="img" viewBox="-4.05 65.19 405.86 108.36"><title>procogia.svg</title><defs><style>.cls-1{fill:#94c101}.cls-2{fill:#343434}</style></defs><path d="M42.76073 73.15472c-.09357.3182.13676.53927.25308.78575q1.76138 3.73224 3.54722 7.45289a2.48529 2.48529 0 0 1 .25868 1.11823q-.012 8.03547.00721 16.07092c.00236.58912-.11588.80234-.75764.78752-1.97579-.0456-3.95353-.03214-5.93-.0051a.79293.79293 0 0 1-.85258-.56519 5.1675 5.1675 0 0 0-6.4222-2.84153 5.31433 5.31433 0 0 0-3.46551 6.0783 5.22587 5.22587 0 0 0 5.73682 4.17976 4.94119 4.94119 0 0 0 4.09568-2.976.95366.95366 0 0 1 1.05127-.63821q2.96471.04142 5.93028.00083c.47715-.006.62609.12631.61256.61117-.03407 1.22127-.03975 2.44511.00181 3.66592.01838.53993-.18173.63732-.66727.63235-2.21073-.02262-4.42185-.01752-6.63275-.0061a1.62865 1.62865 0 0 0-1.80869 1.451 1.57636 1.57636 0 0 0 1.66808 1.80338c2.23685.0164 4.47424.0267 6.71062-.00914.584-.00936.76492.14042.73078.7301-.05252.90713-.03143 1.82-.006 2.72949.0117.419-.08494.59507-.55248.59287-3.6675-.01731-7.33512-.01157-11.00269-.00544a1.76926 1.76926 0 0 1-.74915-.17594c-1.34718-.61165-2.68933-1.2347-4.0438-1.82976a.66338.66338 0 0 1-.461-.75287 5.24367 5.24367 0 0 0-5.19152-5.4687 5.29313 5.29313 0 1 0 .24623 10.581 4.86741 4.86741 0 0 0 3.11368-1.26987.70757.70757 0 0 1 .95494-.14584c.38205.2169.82236.33275 1.19984.55593a13.77168 13.77168 0 0 0 8.13453 1.79256c2.539-.1601 5.09622-.02017 7.64509-.04419.51857-.00488.717.09975.71354.67247-.01115 1.86213.014 1.86228-1.85287 1.86228-3.35545 0-6.71091.00465-10.06633-.005a3.25546 3.25546 0 0 0-1.42744.309c-1.50519.703-3.03038 1.36337-4.53195 2.07379a.94508.94508 0 0 1-1.11255-.09162 5.1001 5.1001 0 0 0-6.1088-.0176 5.304 5.304 0 0 0 2.82687 9.57659 5.22311 5.22311 0 0 0 5.44325-5.58529c-.04731-.65775.20142-.84689.70747-1.13882a14.685 14.685 0 0 1 8.65484-1.89273c2.22536.16068 4.47216.057 6.70833.015.63818-.012.78664.19383.75668.787a21.15034 21.15034 0 0 0 .006 2.80635c.06121.73854-.2266.84251-.87316.83054-2.10618-.039-4.21355-.01771-6.32045-.01332-1.22066.00254-1.942.6187-1.93537 1.63729.0066 1.01394.73581 1.627 1.95794 1.62953 2.15892.0045 4.31813.02018 6.4766-.01166.5493-.00811.70737.14442.68877.69193-.04146 1.22082-.02641 2.44424-.00535 3.66611.00678.39325-.09.54782-.516.54394-2.10673-.01922-4.21394-.02424-6.32047.004-.44939.006-.55048-.23884-.70129-.55777a5.23773 5.23773 0 1 0-6.12111 7.28428 5.13842 5.13842 0 0 0 6.08886-2.84842.89045.89045 0 0 1 .96615-.637c1.97614.03737 3.95355.02728 5.93017.006.473-.0051.681.07345.67888.62446q-.03167 8.19138-.00684 16.383a2.16243 2.16243 0 0 1-.26176.96086q-1.78017 3.72335-3.54553 7.45375c-.11633.24636-.34658.46749-.25223.78563h-.62434a1.692 1.692 0 0 0-.34642-.14141 49.983 49.983 0 0 1-7.67044-2.02918 1.05556 1.05556 0 0 1-.85183-1.32352c.25356-2.7169.41865-5.442.63977-8.16209a.77656.77656 0 0 0-.44709-.87012c-1.473-.82487-2.93608-1.66918-4.37676-2.54895a.811.811 0 0 0-1.03965.05984c-2.30294 1.60487-4.628 3.17808-6.92638 4.78936a.68129.68129 0 0 1-1.00368-.04069 53.9232 53.9232 0 0 1-5.99193-6.02187.75412.75412 0 0 1-.02205-1.1181c1.57867-2.289 3.12313-4.6016 4.69787-6.89338a.83336.83336 0 0 0 .07636-1.04569q-1.31832-2.20706-2.556-4.46172a.76494.76494 0 0 0-.87032-.437c-2.84992.23619-5.70258.43971-8.55169.68473a.53484.53484 0 0 1-.66532-.44768c-.35228-1.11283-.73-2.2176-1.08625-3.32919-.54617-1.70395-.7977-3.47921-1.24854-5.20642v-.46814c2.708-1.3048 5.41188-2.61852 8.12849-3.90527a.87855.87855 0 0 0 .59949-.93525q-.04906-2.49139.00037-4.9842a.87922.87922 0 0 0-.60138-.93412c-2.71568-1.289-5.41934-2.60337-8.127-3.90936v-.46814c.14532-.14118.12405-.33247.15571-.50894a46.20636 46.20636 0 0 1 2.154-7.95534c.1266-.34071.21675-.57535.68711-.53387 2.84842.2512 5.70119.45289 8.54992.70082a.82173.82173 0 0 0 .91308-.50206c.7919-1.43163 1.597-2.85689 2.43975-4.25894a.97907.97907 0 0 0-.0384-1.24653C17.1697 95.11025 15.632 92.793 14.0588 90.5003a.67594.67594 0 0 1 .01406-.99059 52.70758 52.70758 0 0 1 6.03721-6.086.682.682 0 0 1 1.00394-.04119c2.29925 1.61 4.62478 3.18238 6.929 4.78535a.81067.81067 0 0 0 1.03941.06151q2.12637-1.30141 4.31047-2.50747a.87677.87677 0 0 0 .51076-.98889c-.22611-2.71964-.39159-5.44456-.64211-8.16175-.0644-.69848.10979-1.03145.78589-1.2162 1.02525-.28014 2.02963-.63723 3.04107-.96713 1.65161-.53871 3.378-.77029 5.0479-1.23323z" class="cls-1"/><path d="M394.104 135.88469c-2.18078-.13368-4.36442-.06471-6.54505-.03356a1.13559 1.13559 0 0 1-1.27378-.89138c-.7438-1.9638-1.57055-3.89607-2.33146-5.85365a.81611.81611 0 0 0-.91165-.60129q-6.20367.03154-12.40755-.00053a.80853.80853 0 0 0-.89324.6206c-.80207 2.0531-1.64581 4.0899-2.47379 6.13288-.11458.28273-.16694.57977-.60368.57638-2.258-.01752-4.51627-.00814-6.88275-.00814.293-.71888.54637-1.3604.81475-1.99555q6.3747-15.08462 12.74068-30.17289a.96412.96412 0 0 1 1.07429-.7153q2.53422.07046 5.0714.00019a.96516.96516 0 0 1 1.06252.73q6.58162 15.63036 13.20073 31.245c.09648.22793.1094.50835.35858.6552zm-17.25531-24.287c-1.46339 3.59724-2.86479 7.04215-4.28524 10.53388h8.5653a682700.16975 682700.16975 0 0 1-4.28007-10.53383z" class="cls-2"/><path fill="#20b8cb" d="M90.874 138.19812a38.90615 38.90615 0 0 0-1.91593-6.45136 16.43569 16.43569 0 0 0-8.4327-8.98694c-1.27666-.60208-2.37905-.27868-2.83922.79-.45726 1.06195.02011 2.0258 1.26036 2.60776a13.25519 13.25519 0 0 1 7.00787 8.15684 33.43682 33.43682 0 0 1 1.533 6.26864A7.61759 7.61759 0 0 1 86.704 144.59a21.19076 21.19076 0 0 1-3.751 5.708 54.34973 54.34973 0 0 1-6.678 6.28235c.17659-.59007.29656-.98673.414-1.38413a14.20881 14.20881 0 0 0 .41306-7.23075 9.39877 9.39877 0 0 0-3.3084-5.50305 18.18323 18.18323 0 0 0-11.25868-4.37768 9.46091 9.46091 0 0 0-1.704.16195 1.87635 1.87635 0 1 0 .51779 3.71649c4.21464-.51584 7.6196 1.26808 10.62055 3.91011 3.34571 2.94557 2.97565 9.60278-1.40119 11.76363a10.90424 10.90424 0 0 0-4.19488 3.66423 8.88885 8.88885 0 0 1-8.046 3.92189c-2.62278-.12643-5.25866-1.70993-5.16542-5.24247.04092-1.55054.00688-3.103.00688-4.67132.34129.018.44424.257.60186.40662a5.77411 5.77411 0 0 0 5.86959 1.55895 10.82971 10.82971 0 0 0 7.65708-6.92655 1.8828 1.8828 0 0 0-.776-2.50321 1.85553 1.85553 0 0 0-2.70816 1.204 7.29427 7.29427 0 0 1-5.05 4.58355 2.25476 2.25476 0 0 1-2.41559-.629 6.94284 6.94284 0 0 1-1.186-1.53962 13.94378 13.94378 0 0 1-2.03311-7.14987c.10915-8.26758.03907-16.53752.0438-24.80655a1.96129 1.96129 0 0 1 .06988-.9065c.06158-.00316.12854-.02775.15555-.005 3.09286 2.608 6.772 2.92519 10.58669 2.71132a5.12968 5.12968 0 0 0 .69725-.07643c.5113-.1001.63907.10294.54374.58627a6.95656 6.95656 0 0 0 .84441 4.58649 16.545 16.545 0 0 0 4.60781 5.42932 1.81339 1.81339 0 0 0 2.64171-.24926 1.88672 1.88672 0 0 0-.297-2.64983 16.38885 16.38885 0 0 1-3.15678-3.43152c-1.71118-2.60763-1.26068-4.33369 1.52214-5.7388a18.82539 18.82539 0 0 1 6.85716-1.63215 49.85248 49.85248 0 0 1 11.05151.11778 15.93908 15.93908 0 0 1 2.28491.47558 1.68688 1.68688 0 0 1 1.35665 1.51427c.02207.17984.11649.37742.0699.535-.57092 1.93117.40665 3.655.6821 5.47553a16.52687 16.52687 0 0 1-1.49858 10.08449 6.84457 6.84457 0 0 1-1.31723 1.86399zM77.05978 81.89318a20.52543 20.52543 0 0 1 5.75422 5.04606 6.08594 6.08594 0 0 1 1.12979 2.86988 23.28562 23.28562 0 0 0 4.40669 10.68488 27.7239 27.7239 0 0 1 4.51132 12.23088c.11293.74419.17063 1.49668.27978 2.24154.07656.52246-.03816.66231-.61262.556a61.52169 61.52169 0 0 0-13.40871-1.16466 28.97526 28.97526 0 0 0-9.46636 1.98691 18.07447 18.07447 0 0 1-11.17719.79064 5.08442 5.08442 0 0 1-3.86677-3.68382 31.28018 31.28018 0 0 1-1.44683-8.80313q.02323-12.51966.00538-25.03941c0-3.34283 1.12317-4.777 4.43532-5.418a13.23748 13.23748 0 0 1 8.6312 1.24883 4.717 4.717 0 0 1 1.63267 1.30269.61613.61613 0 0 1-.07137.98261 20.24584 20.24584 0 0 0-3.37882 4.16819 8.35752 8.35752 0 0 0-1.50413 5.91114 11.53235 11.53235 0 0 0 5.05581 7.65911 1.78628 1.78628 0 0 0 2.53243-.53716A1.837 1.837 0 0 0 69.96 92.3217a8.5854 8.5854 0 0 1-2.96275-3.73579 6.09762 6.09762 0 0 1 1.02536-6.3619 2.83319 2.83319 0 0 1 4.21308-.42636 5.02271 5.02271 0 0 1 1.43677 1.82015 41.97236 41.97236 0 0 1 3.66021 11.45538 12.46662 12.46662 0 0 1-.23568 5.55915 4.968 4.968 0 0 1-2.70508 3.25837 10.558 10.558 0 0 1-7.36334.75616 7.31552 7.31552 0 0 1-4.34765-3.21833 1.84364 1.84364 0 0 0-1.98332-.93218 1.89554 1.89554 0 0 0-1.50162 1.60331 2.22448 2.22448 0 0 0 .492 1.5998 11.08153 11.08153 0 0 0 7.51777 4.84358 14.32587 14.32587 0 0 0 8.24139-1.01132c3.67812-1.54391 5.36307-4.52551 5.70239-8.345.39316-4.42563-.75553-8.60526-2.24553-12.70672-.537-1.47806-1.17089-2.92091-1.84422-4.58682z"/><path d="M182.86538 135.82593c-2.78033 0-5.39943-.00491-8.01847.00511-.40863.00157-.50541-.31679-.66921-.56229-2.0612-3.08908-4.12574-6.17605-6.162-9.28154a1.14877 1.14877 0 0 0-1.12206-.6156q-2.10485.059-4.21225-.00017c-.54742-.01569-.69061.13871-.68567.68446.02732 3.01571-.00313 6.032.02724 9.04761.0058.576-.12533.75119-.72317.7384-1.92358-.04118-3.8487-.02641-5.773-.00735-.46588.00461-.68779-.06088-.68684-.62341q.02662-15.71684.00711-31.43372c-.00028-.39678.0449-.619.53515-.61269 5.382.06934 10.76644-.12824 16.14618.11793a11.99528 11.99528 0 0 1 4.86587 1.27544c3.8199 1.92229 5.46611 5.1567 5.49781 9.31442.03582 4.6998-1.96713 8.13936-6.356 10.03593-.55767.241-.461.43189-.19433.82179q3.51844 5.14515 7.01071 10.30825c.14427.21237.28055.43011.51293.78743zm-20.85682-21.48029c0 1.37655.01628 2.7534-.00958 4.12946-.00814.43253.10393.58911.555.56631.72556-.03665 1.45485.00788 2.18165-.01318a44.989 44.989 0 0 0 5.98983-.14852 4.348 4.348 0 0 0 3.93675-4.61268 4.21777 4.21777 0 0 0-4.00525-4.44184c-2.738-.36738-5.49987-.07124-8.24936-.16219-.47069-.01556-.39924.27322-.39918.553q.00044 2.06483.00014 4.12964zm44.58426 22.01647c-8.35858-.00471-14.93694-4.99235-16.87323-12.6298a16.75729 16.75729 0 0 1 14.49291-20.93475c7.02351-.75143 12.89277 1.47781 16.80464 7.54046a16.83426 16.83426 0 0 1-11.30694 25.73035 16.52271 16.52271 0 0 1-3.11738.29374zm9.59226-17.01773a9.8853 9.8853 0 0 0-16.36522-7.51624c-2.69339 2.55367-3.48118 5.79711-3.00661 9.40915a9.76856 9.76856 0 0 0 12.32 8.14862c4.30393-1.20356 7.06063-5.06413 7.05183-10.04153zm64.91847-16.70714c8.39086.006 14.9422 4.93184 16.92409 12.48992a16.75946 16.75946 0 0 1-14.46523 21.076c-6.99434.75024-12.861-1.46064-16.76217-7.4807a16.838 16.838 0 0 1 11.283-25.79343 15.94356 15.94356 0 0 1 3.02031-.29179zm9.99018 16.79951a9.90286 9.90286 0 0 0-16.17118-7.791c-2.91227 2.61153-3.75038 6.00808-3.17039 9.78562a9.72 9.72 0 0 0 11.72049 8.08655c4.5759-.97617 7.61771-4.95661 7.62108-10.08117zm44.42091 4.76608c0 2.13193-.00381 4.26388.00393 6.39578a.96614.96614 0 0 1-.34037.88776c-6.27884 4.87658-13.19712 6.40047-20.69341 3.45359-5.73411-2.25415-8.8528-6.792-9.66138-12.8456a16.613 16.613 0 0 1 4.98628-14.84388 16.15886 16.15886 0 0 1 10.64445-4.57852c4.90317-.2849 9.45119.72185 13.33738 3.94989.46291.38452.5075.59932.10852 1.06213q-1.807 2.09607-3.5172 4.27467c-.38061.48375-.6123.58149-1.13256.14111a11.07043 11.07043 0 0 0-8.80662-2.75755c-4.14432.526-6.63946 3.08583-7.87328 6.92823a10.85525 10.85525 0 0 0 3.252 11.53328c3.61845 2.92968 9.32477 2.36275 12.39777.33734a.671.671 0 0 0 .36868-.62122c-.015-1.27378-.02694-2.54835.00423-3.82154.01193-.489-.25344-.46151-.58383-.46049-1.95043.006-3.90154-.0268-5.85085.01979-.64253.01536-.77215-.19513-.75763-.78648.03889-1.585.03287-3.17195.00208-4.7573-.01006-.51907.09462-.71738.672-.71395q6.39714.038 12.79461.0017c.51543-.00257.66191.13864.656.6496-.02539 2.18363-.0108 4.36773-.0108 6.55166zm-213.89808-4.6742q0-7.80039.00063-15.60079c.00006-.37533-.11973-.7748.53648-.76495 4.81.07217 9.624-.14074 14.43068.11627 4.99268.267 9.05179 3.30023 10.21757 7.75645 1.6954 6.48074-.955 13.14776-9.31755 14.70253a44.07785 44.07785 0 0 1-7.9383.2792c-.65472.00277-.8086.1662-.79963.80994.03877 2.7816.00544 5.56413.02708 8.34611.00381.48994-.097.67513-.63321.66612q-2.925-.04917-5.85129 0c-.5644.00974-.68523-.1813-.68339-.71017.01809-5.20017.01093-10.40045.01093-15.60071zm7.14632-4.93437c0 1.50563-.00269 3.01127.00276 4.51688.00086.23714-.099.54844.33849.53453a51.16655 51.16655 0 0 0 6.84213-.17163 4.69553 4.69553 0 0 0 4.07962-4.98652 4.49326 4.49326 0 0 0-4.19341-4.669 60.624 60.624 0 0 0-6.68815-.15415c-.48747-.01775-.37856.30555-.37937.56871-.00443 1.45375-.00212 2.90746-.00207 4.36118zm118.05577-11.95161a16.78946 16.78946 0 0 1 12.08677 4.527c.418.3942.4362.604.04716 1.03412-1.20286 1.32978-2.36781 2.69519-3.51 4.07774-.412.49869-.65922.63859-1.23351.12591a11.24011 11.24011 0 0 0-6.504-3.075 9.16507 9.16507 0 0 0-9.87074 6.30758 11.0889 11.0889 0 0 0 2.90567 11.98677 9.78672 9.78672 0 0 0 11.03069.80688 15.37953 15.37953 0 0 0 2.87594-2.12775c.34021-.31291.52836-.33416.861.01722 1.21523 1.2838 2.44768 2.55295 3.71631 3.78366.40183.38982.27987.58176-.0349.91509a16.55366 16.55366 0 0 1-12.67616 5.34323 16.07118 16.07118 0 0 1-13.29159-6.318c-6.82293-8.7856-3.60156-23.53856 8.81616-26.8352a16.93135 16.93135 0 0 1 4.7812-.56925zm105.31081 16.93583c0 5.17476-.00979 10.34957.01368 15.52423.00259.57719-.12941.7516-.726.739-1.92391-.04061-3.84949-.03235-5.77382-.00369-.51565.00767-.65878-.14321-.65806-.65817q.02127-15.68029 0-31.36062c-.00068-.51608.1445-.66485.659-.65723 1.92433.02852 3.84992.0371 5.77379-.00383.59823-.01273.72752.16454.725.74-.02315 5.22672-.01359 10.45354-.01359 15.68031z" class="cls-2"/><path d="M26.8264 127.1063a2.02161 2.02161 0 1 1-4.04287.0501 2.02159 2.02159 0 0 1 4.04287-.0501zm-2.03672-13.21748a2.01131 2.01131 0 0 1-2.00654-2.04709 2.0195 2.0195 0 0 1 4.03894.02031 2.021 2.021 0 0 1-2.0324 2.02678zm9.77914-10.90705a2.01083 2.01083 0 0 1-2.05029-2.00416 2.06672 2.06672 0 0 1 2.03317-2.04725 2.01319 2.01319 0 0 1 1.98836 1.98928 1.96868 1.96868 0 0 1-1.97124 2.06213zm1.97142 35.0173a2.01965 2.01965 0 0 1-1.9852 2.07174 2.07136 2.07136 0 0 1-2.03644-2.04467 2.01154 2.01154 0 0 1 1.96874-2.00687 1.96768 1.96768 0 0 1 2.0529 1.9798z" class="cls-1"/></svg>