<svg id="Layer_1" data-name="Layer 1" xmlns="http://www.w3.org/2000/svg" viewBox="0 0 204.18 237.56">
  <path d="M108,4.88l-.18-.13h-1.09l-.22.15a88.23,88.23,0,0,1-7.92,4.89C67.42,27.79,36.33,46,5.1,63.88c-.2,36.89,0,73.79-.1,110.68,0,2.88.06,5.76.1,8.64,29.69,17,59.26,34.3,88.91,51.43,4.26,2.6,8.59,4.58,12.51,7.68h1.14c3.87-2.61,8-4.88,12.09-7.24,29.75-17.3,59.77-34.48,89.43-51.88V63.8L120.9,12.67C116.57,10.08,112.09,7.85,108,4.88Zm88.49,170.41C166.74,192.49,137,209.8,107.22,227Q62.62,201,18,175.23V71.84Q59.1,47.92,100.29,24.13c2.28-1.33,4.58-2.75,6.94-3.89,3.32,1.59,6.47,3.62,9.67,5.44q39.81,23,79.6,46.09.1,51.77,0,103.52Z" transform="translate(-5 -4.75)"/>
  <path d="M85.41,79.66a5.22,5.22,0,1,0-1.41,2A5.24,5.24,0,0,0,85.41,79.66Z" transform="translate(-5 -4.75)"/>
  <path d="M80.94,86.25c2.69-.07,4-1.81,5.91-3.38-2.46.62-5.19,1.82-7.71,1.3-1.49-.19-3-.45-4.44-.7C76.74,84.91,78.22,86.5,80.94,86.25ZM77.78,93l5.53-.62c.07-1.63.12-3.27.18-4.9l-5.83-.07C77.69,89.25,77.73,91.11,77.78,93Zm11.31.72c-5.68,0-13.07-.17-17.77,3.47a11.51,11.51,0,0,0-2.39,15.36c2,3.17,5,4.52,8.21,6.25-.07-2-.14-4-.23-5.94-2-2.12-4.41-3.66-4.18-6.92.19-4,4-5.42,7.41-6.07,3.77-.84,6.41,1.39,9.94,2.17,2.46.42,5.15-.19,7.61-.44C96,97.78,93.85,93.67,89.09,93.69Zm2.77,4.25-.65-.37v-.74l.64-.38.65.36v.75Z" transform="translate(-5 -4.75)"/>
  <path d="M83.09,100.86q-2.53.31-5.07.6c.1,10.19.45,20.38.72,30.57,1.22-.61,2.44-1.2,3.67-1.8C82.56,120.44,82.92,110.66,83.09,100.86Zm14.36,1.74c-.33,1.2,2.08,2.22,2.93,1.51C100.75,102.92,98.28,102,97.45,102.6ZM58.09,125.84a8.8,8.8,0,0,0,1.63-12.34,8.62,8.62,0,0,0-1.32-1.38c-2.16-1.82-4.62-1.84-7.31-2-4.73-.08-9.47,0-14.2,0v30h6.52V128.5c2.78.27,7.59-.72,9.74,1.34,1.1,3.17.87,7,1.29,10.3h7.5a39.71,39.71,0,0,1-1.51-9.81C60.46,128.44,59.22,127.35,58.09,125.84Zm-5.43-3c-2.94.67-6.19.39-9.2.41v-7.42c3,0,6.19-.27,9.12.38,2.79.92,3,5.69.11,6.6Zm56.71-12.71H99.92v30.08h6.25c.11-7.11-.14-14.24.21-21.34,1.62,7.11,3.16,14.24,4.75,21.36h6.55c1.61-6.94,2.95-14,4.82-20.81.29,6.94.1,13.86.15,20.81h6.24c.08-10,0-20,0-30.07H119.5c-1.7,7.3-3.3,14.62-5,21.9C112.71,124.76,111.15,117.42,109.37,110.13ZM170.19,139l1,1.2h5.63v-30l-6.29-.06q0,4.77.06,9.52c-4-3.41-10.1-3.24-13.14,1.27-3.2,5-3.29,13.17,1,17.62,3.35,3.26,8,2.83,11.74.45Zm-5.91-15.7a3.86,3.86,0,0,1,4.71,1c2,2.23,2.13,7,.33,9.37a4,4,0,0,1-6.71-.22c-1.72-2.81-1.52-8.33,1.67-10.13Z" transform="translate(-5 -4.75)"/>
  <path d="M84,116.34v5.18c1.6,2,4.05,3.37,2.59,6.29-2.8,4.42-9.94,5.21-13.62,9a6.61,6.61,0,0,0-1.44,8.31c1.38,2.32,4.09,3.21,6.35,4.47,0-1.18-.05-2.35-.09-3.53-1.24-1.57-4.38-3.06-2.73-5.4,3.64-4.11,10.63-4.69,14.41-9A8.49,8.49,0,0,0,90.18,121C88.65,118.62,86.36,117.71,84,116.34Zm64.86,23.2c2.6-1.41,3.35-3.75,4.62-6.22a32.67,32.67,0,0,0-5.68.11c-2.22.6-3.7,3-6.18,2.08-2-.68-2.5-2.9-3.41-4.55,5.09-.11,10.17-.05,15.26-.06-.25-4.43-.19-8.36-3.86-11.46C145.23,116,136.68,116.53,134,122a17.25,17.25,0,0,0-1.1,12.45C134.77,140.59,143.69,142.55,148.85,139.54Zm-6.54-16.87c2.91-.34,3.51,1.9,4.92,3.8-3,.12-5.95.13-8.94,0C139.31,125.21,140.37,122.51,142.31,122.67Z" transform="translate(-5 -4.75)"/>
  <path d="M81.69,157.42c.23-6.74.39-13.51.38-20.27-1.21,1-3.08,1.22-3,3.06-.17,6.78.26,13.63.47,20.42,1-1,2.17-1.55,2.15-3.21Z" transform="translate(-5 -4.75)"/>
  <path d="M83,148.14c.09,1.1.19,2.19.32,3.28,1.14,1.85,4.42,4,2.41,6.3-2.88,2.76-7.66,3.7-10.48,6.69a21.43,21.43,0,0,0-2,4.08,31.94,31.94,0,0,1,7-4.48c2.36-1.06,5.34-1.94,7.23-3.73a6.27,6.27,0,0,0,1-7.61c-1.19-2-3.66-3.28-5.48-4.53Zm-1.53,16.2c-.62.41-1.23.82-1.83,1.25a46.54,46.54,0,0,0,.51,10.48C82.22,172.84,81.36,168,81.48,164.34Z" transform="translate(-5 -4.75)"/>
</svg>
