<svg id="Layer_1" data-name="Layer 1" xmlns="http://www.w3.org/2000/svg" viewBox="0 0 61.63 66.83">
  <g>
    <path d="M34.81,24.53A11.65,11.65,0,1,0,23.16,12.88,11.66,11.66,0,0,0,34.81,24.53Zm0-21.12a9.47,9.47,0,1,1-9.47,9.47A9.48,9.48,0,0,1,34.81,3.41Z" transform="translate(-3.97 -1.23)" fill="#5abcc4"/>
    <path d="M30.06,28.48h9.45c.51,0,12.51.23,12.51,15h2.17c0-17-14.53-17.16-14.68-17.16H30.06c-.15,0-14.69.19-14.69,17.16h2.18C17.55,28.71,29.55,28.49,30.06,28.48Z" transform="translate(-3.97 -1.23)" fill="#5abcc4"/>
    <path d="M50.64,44.58l-.51,2.12c8.08,1.93,13.29,5.36,13.29,8.75,0,5-11.5,10.43-28.64,10.43S6.15,60.49,6.15,55.45c0-3.42,5-6.76,13.17-8.72l-.51-2.12C9.52,46.86,4,50.91,4,55.45c0,7.07,13.54,12.61,30.81,12.61S65.6,62.52,65.6,55.45C65.6,50.89,60,46.82,50.64,44.58Z" transform="translate(-3.97 -1.23)" fill="#5abcc4"/>
    <path d="M47.19,35.41H22.61a2.32,2.32,0,0,0-2.33,2.32V48.44H17.7a1.76,1.76,0,0,0-1.76,1.75v.38l4.9,6.21H49l4.82-6.21v-.38A1.75,1.75,0,0,0,52,48.44H49.51V37.73A2.32,2.32,0,0,0,47.19,35.41Zm.14,2.32V54.6H22.47l.14-17Zm-27,12.89v1.93l-1.53-1.93Zm30.71,0-1.48,1.89V50.62Z" transform="translate(-3.97 -1.23)" fill="#5abcc4"/>
    <path d="M34.86,49.84a3.71,3.71,0,1,0-3.71-3.71A3.72,3.72,0,0,0,34.86,49.84Zm0-5.24a1.53,1.53,0,1,1-1.53,1.53A1.52,1.52,0,0,1,34.86,44.6Z" transform="translate(-3.97 -1.23)" fill="#5abcc4"/>
  </g>
</svg>
