<svg id="Layer_1" data-name="Layer 1" xmlns="http://www.w3.org/2000/svg" viewBox="0 0 49.09 56.51">
  <g>
    <path d="M43.46,43.08l-.59-.19-7.82,7-7.79-7-.59.19c-9.5,3-15.89,10.72-15.89,19.3,0,.3,0,.59,0,.89L13,63.14c0-.26,0-.51,0-.77,0-7.45,5.52-14.23,13.78-17l8.32,7.51,8.35-7.5c8.25,2.81,13.75,9.59,13.75,17,0,.26,0,.52,0,.78l2.17.1c0-.29,0-.59,0-.88C59.32,53.8,53,46,43.46,43.08Z" transform="translate(-10.46 -6.74)" fill="#5abcc4"/>
    <path d="M22,25.06l1.51-.63a32.06,32.06,0,0,1,11.54-1.85A32.28,32.28,0,0,1,46.5,24.39L48,25V18.13L51.4,17v8.21h2.17V16.31l6-1.95L35,6.74,10.46,14.36,22,18.13Zm13-4.65a37.63,37.63,0,0,0-10.87,1.46V18.62A33.38,33.38,0,0,1,35.05,17a33.82,33.82,0,0,1,10.77,1.56v3.26A37.51,37.51,0,0,0,35.05,20.41Zm-17.42-6L35,9l17.37,5.39-6.14,2a36.48,36.48,0,0,0-11.18-1.58,36.7,36.7,0,0,0-11.23,1.59Z" transform="translate(-10.46 -6.74)" fill="#5abcc4"/>
    <path d="M22.65,25.88a12.84,12.84,0,0,0-.6,3.89,13,13,0,0,0,26,0,12.84,12.84,0,0,0-.6-3.89l-2.07.65a10.83,10.83,0,1,1-20.65,0Z" transform="translate(-10.46 -6.74)" fill="#5abcc4"/>
  </g>
</svg>
